<svg xmlns="http://www.w3.org/2000/svg" width="67.203" height="69.252" viewBox="0 0 67.203 69.252"><defs><style>.a{fill:#b3c6ff;}.b{fill:#4270ff;}.c{fill:#fff;}.d{fill:#3254bf;}</style></defs><g transform="translate(2.156 -14.863)"><circle class="a" cx="16.863" cy="16.863" r="16.863" transform="translate(-2.156 50.388)"/><path class="b" d="M77.877,60.781v-8.7H14.443v8.7H40.714v7.373H30.323a1.889,1.889,0,0,0-1.889,1.889V93.679a1.889,1.889,0,0,0,1.889,1.889H40.714V113.28h11.1V95.567H62a1.889,1.889,0,0,0,1.889-1.889V70.043A1.889,1.889,0,0,0,62,68.154H51.811V60.781H77.877Z" transform="translate(-14.566 -32.661)"/><path class="c" d="M198.123,224.062h-16.35a3.468,3.468,0,0,0-3.469,3.469v10.35a3.469,3.469,0,0,0,3.469,3.469h16.35a3.469,3.469,0,0,0,3.469-3.469v-10.35A3.469,3.469,0,0,0,198.123,224.062Z" transform="translate(-158.354 -183.572)"/><g transform="translate(-1.858 14.863)"><path class="d" d="M185.692,209.9h-16.35a5.21,5.21,0,0,0-5.2,5.2v10.35a5.21,5.21,0,0,0,5.2,5.2h16.35a5.21,5.21,0,0,0,5.2-5.2V215.1A5.21,5.21,0,0,0,185.692,209.9ZM167.609,225.45V215.1a1.735,1.735,0,0,1,1.733-1.733H176.6l-5.35,6.452h6.967l-4.341,7.365h-4.53A1.735,1.735,0,0,1,167.609,225.45Zm19.817,0a1.736,1.736,0,0,1-1.734,1.733H174.2l9.585-10.065h-6.1l3.752-3.752h4.248a1.735,1.735,0,0,1,1.734,1.733Z" transform="translate(-144.065 -186.004)"/><path class="d" d="M67.18,29.856V17.687H59.84V16.23H58.47a1.406,1.406,0,0,0-1.4-1.367H56.6a1.406,1.406,0,0,0-1.405,1.367H53.824v1.457H48.287V16.23H46.918a1.406,1.406,0,0,0-1.4-1.367h-.467a1.406,1.406,0,0,0-1.4,1.367H42.272v1.457H36.735V16.23H35.366a1.406,1.406,0,0,0-1.4-1.367h-.467a1.406,1.406,0,0,0-1.4,1.367H30.72v1.457H25.183V16.23H23.814a1.406,1.406,0,0,0-1.4-1.367h-.467a1.406,1.406,0,0,0-1.4,1.367H19.168v1.457H13.631V16.23H12.262a1.406,1.406,0,0,0-1.405-1.367H10.39A1.406,1.406,0,0,0,8.985,16.23H7.616v1.457H.275V29.856H26.546v3.9H17.891a3.629,3.629,0,0,0-3.625,3.624V61.018a3.629,3.629,0,0,0,3.625,3.624h8.656V82.355H41.114V64.642h8.45a3.628,3.628,0,0,0,3.624-3.624V50.876H49.718V61.018a.154.154,0,0,1-.153.153H37.643V78.884H30.017V61.172H17.891a.154.154,0,0,1-.154-.153V37.382a.154.154,0,0,1,.154-.153H30.017V26.385H3.746V21.158H63.709v5.227H37.643V37.229H49.565a.154.154,0,0,1,.153.153V47.405h3.471V37.382a3.628,3.628,0,0,0-3.624-3.624h-8.45v-3.9Z" transform="translate(-0.275 -14.863)"/></g></g></svg>