<svg xmlns="http://www.w3.org/2000/svg" width="67.543" height="69.299" viewBox="0 0 67.543 69.299"><defs><style>.a{fill:#ffe69c;}.b{fill:#ffc107;}.c{fill:#fff;}.d{fill:#bf9105;}</style></defs><g transform="translate(2.156 -14.827)"><circle class="a" cx="16.874" cy="16.874" r="16.874" transform="translate(14.741 50.378)"/><path class="b" d="M215.809,75.117V33.382A4.386,4.386,0,0,0,211.423,29H192.95a4.386,4.386,0,0,0-4.386,4.386V75.117A4.386,4.386,0,0,0,192.95,79.5h18.473A4.386,4.386,0,0,0,215.809,75.117Z" transform="translate(-167.342 -12.432)"/><circle class="c" cx="8.308" cy="8.308" r="8.308" transform="translate(26.536 22.919)"/><circle class="c" cx="8.308" cy="8.308" r="8.308" transform="translate(26.536 44.1)"/><circle class="c" cx="11.551" cy="11.551" r="11.551" transform="translate(-0.419 16.564)"/><g transform="translate(-2.156 14.827)"><g transform="translate(37.502 17.216)"><g transform="translate(16.665)"><path class="d" d="M451.479,212.517H441.392a1.645,1.645,0,0,0,0,3.289h10.086a1.645,1.645,0,0,0,0-3.289Z" transform="translate(-439.748 -205.5)"/><path class="d" d="M451.076,249.647a5.3,5.3,0,0,0,5.3,5.3h0a5.3,5.3,0,0,0,5.3-5.3v-1.352h-10.6v1.352Z" transform="translate(-449.687 -236.893)"/><path class="d" d="M463.025,156.553a1.279,1.279,0,0,0-2.559,0v4.568h2.559v-4.568Z" transform="translate(-457.926 -155.274)"/><path class="d" d="M509.834,156.553a1.279,1.279,0,0,0-2.558,0v4.568h2.558v-4.568Z" transform="translate(-498.999 -155.274)"/></g><path class="d" d="M325.4,347.215c0,4.315-3.044,7.826-6.785,7.826H314.9c-3.741,0-6.785-3.511-6.785-7.826h-4.32c0,6.7,4.982,12.146,11.105,12.146h3.715c6.124,0,11.105-5.449,11.105-12.146v-16.7H325.4v16.7Z" transform="translate(-303.795 -309.035)"/></g><g transform="translate(31.833 14.439)"><circle class="d" cx="1.961" cy="1.961" r="1.961"/><circle class="d" cx="1.961" cy="1.961" r="1.961" transform="translate(6.411)"/><circle class="d" cx="1.961" cy="1.961" r="1.961" transform="translate(0 21.181)"/><circle class="d" cx="1.961" cy="1.961" r="1.961" transform="translate(6.411 21.181)"/></g><g transform="translate(0 0)"><path class="d" d="M11.131,41.4A13.287,13.287,0,1,1,24.418,28.114,13.3,13.3,0,0,1,11.131,41.4Zm0-23.1a9.814,9.814,0,1,0,9.814,9.814A9.825,9.825,0,0,0,11.131,18.3Z" transform="translate(2.156 -14.827)"/><path class="d" d="M61.6,71.6H57.906V67.908a1.645,1.645,0,1,0-3.289,0V71.6H50.923a1.644,1.644,0,1,0,0,3.289h3.693v3.693a1.645,1.645,0,1,0,3.289,0V74.89H61.6a1.644,1.644,0,1,0,0-3.289Z" transform="translate(-42.974 -59.958)"/></g><g transform="translate(21.641 0)"><path class="d" d="M198.991,14.827H180.519A6.131,6.131,0,0,0,175,18.307a13.365,13.365,0,0,1,2.873,3.764V20.95a2.652,2.652,0,0,1,2.649-2.649h18.473a2.652,2.652,0,0,1,2.649,2.649V62.685a2.652,2.652,0,0,1-2.649,2.649H180.519a2.652,2.652,0,0,1-2.649-2.649v-8.54H174.4v8.54a6.13,6.13,0,0,0,6.123,6.123h18.473a6.13,6.13,0,0,0,6.123-6.123V20.95A6.13,6.13,0,0,0,198.991,14.827Z" transform="translate(-174.396 -14.827)"/><path class="d" d="M177.868,184.412v-11.88a13.368,13.368,0,0,1-3.473,4.279v12.234h3.473Z" transform="translate(-174.395 -153.201)"/></g></g></g></svg>